<svg width="20" height="20" viewBox="0 0 20 20" fill="none" xmlns="http://www.w3.org/2000/svg">
<path d="M11.6668 1.89136V5.33348C11.6668 5.80018 11.6668 6.03354 11.7577 6.2118C11.8376 6.3686 11.965 6.49608 12.1218 6.57598C12.3001 6.66681 12.5335 6.66681 13.0002 6.66681H16.4423M11.6668 14.5834L13.7502 12.5001L11.6668 10.4167M8.3335 10.4167L6.25016 12.5001L8.3335 14.5834M16.6668 8.3236V14.3334C16.6668 15.7335 16.6668 16.4336 16.3943 16.9684C16.1547 17.4388 15.7722 17.8212 15.3018 18.0609C14.767 18.3334 14.067 18.3334 12.6668 18.3334H7.3335C5.93336 18.3334 5.2333 18.3334 4.69852 18.0609C4.22811 17.8212 3.84566 17.4388 3.60598 16.9684C3.3335 16.4336 3.3335 15.7335 3.3335 14.3334V5.66675C3.3335 4.26662 3.3335 3.56655 3.60598 3.03177C3.84566 2.56137 4.22811 2.17892 4.69852 1.93923C5.2333 1.66675 5.93336 1.66675 7.3335 1.66675H10.01C10.6215 1.66675 10.9272 1.66675 11.2149 1.73582C11.47 1.79707 11.7139 1.89808 11.9375 2.03515C12.1898 2.18975 12.406 2.40594 12.8384 2.83832L15.4953 5.49517C15.9276 5.92755 16.1438 6.14374 16.2984 6.39604C16.4355 6.61972 16.5365 6.86358 16.5978 7.11867C16.6668 7.40639 16.6668 7.71213 16.6668 8.3236Z" stroke="#A4A7AE" stroke-width="1.67" stroke-linecap="round" stroke-linejoin="round"/>
</svg>
