<?xml version="1.0" encoding="UTF-8"?>
<svg id="Layer_1" xmlns="http://www.w3.org/2000/svg" viewBox="0 0 706 59">
  <defs>
    <style>
      .cls-1 {
        fill: #ed2224;
      }

      .cls-2 {
        fill: #ed2225;
      }
    </style>
  </defs>
  <path class="cls-1" d="M25.04,50.82c-6.33,1.15-12.71,2.09-18.97,3.54-3.31.77-4.34-.19-5-3.32-1.97-9.5-2.08-9.41,7.53-11.37,20.18-4.1,40.49-7.37,60.86-10.4,1.95-.29,3.85-.82,5.78-1.24,22.92-6.28,46.6-7.34,70.02-10.23,19.27-2.38,38.61-4.02,57.94-5.67,15.2-1.29,30.44-2.32,45.67-3.41,18.86-1.35,37.74-2.45,56.62-3.58,9.27-.55,18.55-1.37,27.86-1.28,3.99.03,7.98.02,11.95-.5,19.89.3,39.69-1.81,59.55-2.36,3.48-.1,6.96-.36,10.44.14,4.14.6,8.27.46,12.38-.35,2.92.05,5.83.03,8.75-.01,2.95.56,5.92.7,8.92.69,32.72-.1,65.44.13,98.15-.15,5.33,1.5,10.81,1.19,16.25,1.11,18.09-.27,36.03,1.5,53.95,3.61,1.4.16,2.82.38,4.18.8.85.26,1.67.61,2.46,1.07,2.37,3.71-.6,5.03-3.05,6.22-2.59,1.25-5.54.98-8.33.75-3.38-.28-6.22.07-7.71,3.68-.37.91-1.3,1.48-2.34,1.68-43.77-3.82-87.65-4.22-131.53-4.17-13.79.02-27.57.5-41.36.77-34.45.05-68.86,1.62-103.26,3.3-74.5,3.63-148.83,9.38-222.84,18.83-23.94,3.05-47.79,6.66-71.55,10.87-1.13.2-2.21.64-3.31.97Z"/>
  <path class="cls-2" d="M640.7,26.73c2.71-4.03,5.42-8.05,8.13-12.08,15.34,3.28,30.2,7.91,43.95,15.63,1.31.92,2.61,1.85,3.92,2.77,5.43,3.24,8.23,8.26,9.55,14.25.35,1.57.25,2.99-1.67,3.52-1.15-.09-2.3-.26-3.45-.27-4.26-.06-7.81-.25-10.98-4.56-3.96-5.38-10.83-7.47-16.98-9.91-10.5-4.17-21.48-6.79-32.46-9.34Z"/>
  <path class="cls-1" d="M648.82,14.65l-33.63-8.29-17.2,13.9s39.19,4.2,42.55,6.47"/>
</svg>