<svg xmlns="http://www.w3.org/2000/svg" width="64" height="64" fill="none" viewBox="0 0 64 64"><rect width="64" height="64" fill="url(#paint0_radial_2027_27071)" rx="16"/><path stroke="#fff" stroke-linecap="round" stroke-linejoin="round" stroke-width="3.333" d="M13.667 25h26.667" opacity=".28"/><path stroke="#fff" stroke-linecap="round" stroke-linejoin="round" stroke-width="3.333" d="M23.384 15a50.385 50.385 0 0 0-9.368 9.01 1.581 1.581 0 0 0 0 1.98A50.385 50.385 0 0 0 23.384 35"/><path stroke="#fff" stroke-linecap="round" stroke-linejoin="round" stroke-width="3.333" d="M49.334 43H22.667" opacity=".28"/><path stroke="#fff" stroke-linecap="round" stroke-linejoin="round" stroke-width="3.333" d="M39.617 33a50.385 50.385 0 0 1 9.368 9.01 1.581 1.581 0 0 1 0 1.98A50.388 50.388 0 0 1 39.617 53"/><defs><radialGradient id="paint0_radial_2027_27071" cx="0" cy="0" r="1" gradientTransform="rotate(-90.548 38.226 6.167) scale(44.4527 85.7639)" gradientUnits="userSpaceOnUse"><stop stop-color="#1C6DB6"/><stop offset="1" stop-color="#20A795"/></radialGradient></defs></svg>