<svg xmlns="http://www.w3.org/2000/svg" width="64" height="64" fill="none" viewBox="0 0 64 64"><rect width="64" height="64" fill="url(#paint0_radial_2028_27072)" rx="16"/><path stroke="#fff" stroke-linecap="round" stroke-linejoin="round" stroke-width="3.333" d="M38.667 42.333h.017M45.334 34v10.219C45.334 46.859 39.364 49 32 49c-7.363 0-13.333-2.14-13.333-4.781V34c0 2.485 5.97 4.5 13.333 4.5 7.364 0 13.334-2.015 13.334-4.5Z" opacity=".28"/><path stroke="#fff" stroke-linecap="round" stroke-linejoin="round" stroke-width="3.333" d="M45.334 23.5V34c0 2.485-5.97 4.5-13.334 4.5-7.363 0-13.333-2.015-13.333-4.5V23.5m26.667 0c0 2.485-5.97 4.5-13.334 4.5-7.363 0-13.333-2.015-13.333-4.5m26.667 0c0-2.485-5.97-4.5-13.334-4.5-7.363 0-13.333 2.015-13.333 4.5m20 8.833h.017"/><defs><radialGradient id="paint0_radial_2028_27072" cx="0" cy="0" r="1" gradientTransform="rotate(-90.548 38.226 6.167) scale(44.4527 85.7639)" gradientUnits="userSpaceOnUse"><stop stop-color="#1C6DB6"/><stop offset="1" stop-color="#20A795"/></radialGradient></defs></svg>